<svg width="150" height="150" viewBox="0 0 150 150" fill="none" xmlns="http://www.w3.org/2000/svg">
<g clip-path="url(#clip0_0_1)">
<path d="M137.66 53.33C135.23 45.16 129.34 41.75 121.81 41.73C120.61 41.7 119.83 41.42 118.82 40.92C118.48 40.75 118.38 40.71 118.38 40.38C118.38 39.78 118.31 39.17 118.1 38.6C116.72 34.88 111.81 33.83 108.29 34.47C104 35.25 98.76 38.09 97.49 38.74C96.22 39.39 90.83 42.06 85.37 42.41C80.19 42.75 70.71 41.7 67.15 38.15C67.15 38.15 65.31 39.66 64.04 41.22C68.09 45.71 78.58 46.68 81.25 46.79C82.56 46.85 83.61 47.33 84.29 47.97C86.31 49.9 91.62 54.09 93.56 55.35C94.12 55.71 94.9 56.62 94.93 57.55C95.03 60.93 95.28 67.22 96.14 71.4C96.26 71.99 96.38 72.75 96.31 73.22C96.22 73.79 95.76 74.37 95.41 74.84C93.45 77.49 91.82 80.2 90.41 84.57C90.09 85.55 89.7 86 88.79 86.34C84.7 87.87 78.82 90.27 75.84 91.92C75.45 92.14 74.77 92.2 73.83 91.88C72.28 91.35 68.88 89.37 62.2 88.59C61.69 88.53 61.17 88.21 60.89 87.75C59.73 85.94 56.7 82.73 55.3 81.07C54.82 80.5 54.65 80.32 54.36 79.63C53.67 77.96 52.45 75.17 51.53 73.79C51.43 73.64 51.09 73.26 51.12 72.71C51.16 71.84 51.4 67.04 50.97 64.48C50.91 64.11 50.9 63.74 51.12 63.39C52.26 61.57 52.9 58.55 53.22 56.79C53.27 56.5 53.37 56.21 53.5 55.94C53.5 55.94 55.85 50.1 56.77 48.55C58.07 46.34 60.02 43.89 63.04 40.27C66.07 36.64 74.68 30.24 74.68 30.24C63.45 24.42 52.69 24.1 42.92 26.27C12.54 33.04 -0.98 73.76 17.5 91.97C23.49 97.87 36.29 103.66 45.03 100.51C45.62 100.32 46.07 100.42 46.81 100.66C47.4 100.86 47.46 100.93 47.46 101.03C47.41 102.36 47.9 103.67 49.23 105.08C51.03 106.99 59.1 109.78 67.25 104.59C75.4 99.4 73.78 98.42 78.27 95.65C82.76 92.88 88.81 90.88 88.81 90.88C88.81 90.88 87.14 97.39 86.33 98.89C85.19 100.99 82.74 102.72 79.63 104.68C77.05 106.3 75.5 110.05 76.99 112.71C77.08 112.88 77.01 112.94 76.56 113.22C75.84 113.66 75.66 113.72 74.83 113.6C73 113.29 70.96 113.16 67.96 113.31C63.87 113.51 59.29 114.63 54.4 116.46C54.75 116.92 56.17 118.95 56.54 119.5C58.2 121.92 60.25 124.9 62.78 127.97C69.61 124.95 74.89 121.05 76.81 115.99C77.04 115.51 77.3 115.31 77.9 114.83C78.44 114.4 78.52 114.33 78.63 114.41C81.78 116.37 87.41 115.3 89.77 107.49C90.3 105.73 90.35 102.81 90.6 100.56C91 96.87 91.52 93.59 91.88 91.89C92.49 89.06 95.44 81.46 96.8 79.63C98.22 77.73 98.74 77.58 98.74 77.58C98.74 77.58 102.07 83.01 102.02 86.62C101.97 90.23 101.83 92.27 100.89 95.24C100.03 97.95 100.28 102.72 104.04 103.85C104.14 103.88 104.14 104 104.04 104.37C103.77 105.44 103.6 105.59 102.83 106.08C98.36 109.05 94.42 113.52 90.92 119.52C94.62 119.58 98.31 119.91 101.9 120.22C103.38 120.35 104.82 120.48 106.19 120.57C106.82 118.27 107.17 115.67 107.17 112.76C107.17 110.67 106.79 108.61 106.16 106.94C105.97 106.35 105.93 106.05 106.19 104.73C106.29 104.22 106.39 104.08 106.54 104.07C110.75 103.66 112.11 99.34 111.95 96.39C111.78 93.28 109.68 89.98 108.13 87.22C106.58 84.46 101.74 75.68 100.82 72.03C99.9 68.38 98.68 63.1 99.77 57.92C99.77 57.92 102.12 58.72 104.66 60.49C107.94 62.77 110.12 65.63 110.78 68.67C111.47 71.85 113.94 78.03 119.35 76.84C119.48 76.81 119.55 76.87 119.7 77.29C120.15 78.53 120.3 78.94 120.16 79.7C119.74 81.81 119.45 84.35 119.45 87.18C119.45 90.42 119.77 92.84 120.32 95.66C121.93 94.22 123.54 92.79 125.09 91.28C127.08 89.33 128.84 87.4 130.38 85.5C128.82 82.56 126.36 80.08 123.31 78.3C122.47 77.83 122.4 77.48 121.98 76.41C121.75 75.82 121.77 75.7 121.86 75.61C123.09 74.45 123.65 72.63 123.66 70.7C123.66 68.26 122.65 65.12 119.69 62.57C113.56 57.29 105.09 56.38 101.18 54.6C98.03 53.16 92.3 50.66 88.67 46.13C88.67 46.13 95.68 43.58 98.85 43.67C102.03 43.75 103.2 43.95 107.11 45.65C110.33 47.04 115.56 46.56 117.57 43.47C117.63 43.37 117.73 43.38 118.03 43.56C119.13 44.21 119.38 44.27 119.54 45.26C120.1 49.77 122.16 53.59 126.51 58.56C132.33 65.22 136.47 70.88 134.9 78.65C134.9 78.69 134.95 78.72 134.97 78.68C139.16 71.26 139.88 60.77 137.68 53.37L137.66 53.33ZM65.27 35.43C61.41 38.24 58.26 44.33 56.7 44.15C56.7 44.15 56.32 42.66 56.92 40.03C57.61 36.98 60.6 34.38 65.28 35.43H65.27ZM57.81 34.04C54.53 37.42 54.97 42.47 54.66 46.34C54.38 49.73 52.39 53.57 52.39 53.57C51.89 52.69 51.62 51.71 51.52 50.66C51.42 49.69 52.05 49.09 51.9 48.03C51.8 47.33 51.32 46.94 50.69 46.88C50.57 46.87 50.55 46.81 50.52 46.45C50.48 45.94 50.52 45.8 50.73 45.49C51.63 44.26 51.91 42.76 51.92 39.95C51.92 35.8 55.62 33.93 57.81 34.04ZM48.53 34.67C47.23 36.84 46.95 39.53 47.15 41.65C47.33 43.6 48.05 44.93 49.03 45.68C49.36 45.93 49.42 46.05 49.49 46.51C49.58 47.13 49.56 47.17 49.48 47.24C48.88 47.72 48.46 48.64 48.8 50.14C49.07 51.32 49.82 51.89 50.52 53.94C51.17 55.85 50.99 57.18 50.44 59.29C49.9 61.37 49.29 62.23 49.29 62.23C49.29 62.23 48.16 61.05 47.75 59.65C47.43 58.56 48.08 57.12 47.93 55.09C47.8 53.33 46.28 52.54 44.99 52.7C44.86 52.72 44.82 52.65 44.71 52.26C44.55 51.72 44.56 51.54 44.69 51.19C46.7 46.2 40.16 38.26 48.54 34.67H48.53ZM38.68 38.57C38.54 38.67 38.25 39.96 38.3 42C38.36 44.6 38.89 47.65 40.58 49.82C41.44 50.93 42.25 51.38 43 51.75C43.36 51.92 43.45 52.21 43.58 52.55C43.78 53.1 43.75 53.17 43.67 53.24C42.61 54.09 42.5 55.62 42.7 56.71C43 58.36 45.15 60.79 46.53 62.3C47.93 63.83 48.29 64.97 48.71 66.92C49.13 68.87 48.71 70.27 48.71 70.27C48.11 69.94 46.16 68.45 45.32 67.51C44.26 66.31 43.79 64.27 43.03 62.35C42.31 60.53 40.39 60.01 38.98 60.47C38.85 60.51 38.76 60.48 38.55 60.06C38.34 59.62 38.28 59.33 38.34 58.97C39.45 53.5 30.61 44.37 38.66 38.55L38.68 38.57ZM29.16 46.28C28.88 52.85 32.25 57.95 35.38 59.64C35.97 59.96 36.61 60.11 36.83 60.23C37.06 60.36 37.25 60.58 37.43 60.82C37.72 61.2 37.84 61.36 37.75 61.49C37.15 62.36 36.88 63.67 37.39 64.92C38.08 66.63 40.46 68.51 42.51 69.36C44.56 70.21 46.98 71.69 48.37 73.68C49.76 75.67 49.99 76.09 50.91 77.97C49.55 78.16 47.54 77.82 45.34 76.2C42.47 74.1 42 71.78 40.48 70.65C39.8 70.15 38.97 69.8 38.13 69.71C37.34 69.62 36.46 69.76 35.83 70.26C35.65 70.41 35.43 70.17 35.3 70.06C35.02 69.82 34.65 69.5 34.57 68.82C34.33 66.84 33.03 65.36 31.79 63.89C30.5 62.38 29.24 60.58 28.27 58.65C27.14 56.43 26.23 53.81 26.56 51.28C26.78 49.57 27.53 47.93 29.17 46.28H29.16ZM21.61 60.65C21.72 61.17 23.95 65.51 25.8 67.25C27.39 68.75 30.31 70.74 33.1 70.64C33.58 70.62 34.14 70.98 34.49 71.23C34.78 71.43 34.86 71.53 34.77 71.8C34.28 73.24 34.72 74.84 35.61 76.02C37.04 77.93 40.48 79.06 43.38 79.24C46.28 79.42 49.62 80.81 50.93 81.53C52.24 82.25 56.48 86.17 57.68 88.63C55.33 89.7 51.55 88.37 49.35 86.95C47.2 85.56 45.07 82.36 42.33 81.14C40.88 80.49 39.13 80.59 37.86 81.35C37.65 81.47 37.4 81.66 37.25 81.8C36.95 82.09 36.96 82.15 36.49 81.94C36.09 81.77 35.63 81.58 35.45 81.08C35.23 80.48 34.8 79.85 34.3 79.34C32.04 77.07 27.61 76.03 24.17 72.7C19.43 68.11 21.62 60.65 21.62 60.65H21.61ZM54.89 96.31C51.1 95.05 48.84 97.18 47.99 98.87C47.94 98.97 47.87 99 47.26 98.8C46.65 98.6 46.38 98.54 46.14 98.04C41.93 88.9 31.69 91.4 25.23 86.26C22.17 83.82 21.94 80.33 21.9 78.92C22.57 79.68 23.32 80.38 24.14 80.98C26.95 83.06 30.75 84.17 34.18 83.22C34.45 83.14 34.71 83.07 34.99 83.13C35.28 83.19 35.55 83.33 35.82 83.45C36.17 83.61 36.23 83.71 36.21 83.82C36.03 85.09 36.34 86.7 37.37 88.03C38.84 89.91 42.58 92.3 49.69 92.3C57.33 92.3 60.32 91.53 64.22 92.54C68.12 93.55 72.46 95.64 72.46 95.64C63.72 103.77 59.43 97.81 54.89 96.29V96.31ZM41.28 125.41C42.53 127.45 44 129.48 45.73 131.61C36.13 130.55 31.92 122.85 29.71 117.47C31.76 119.09 35.3 120.04 37.75 120.04C37.75 120.04 40.31 123.83 41.28 125.41ZM95.55 136.03C91.57 138.73 86.82 139.82 81.7 139.82C78.13 139.82 74.69 138.41 72.2 136.75C75.84 136.85 78.18 136.12 81.02 133.96C85.64 134.96 90.41 135.95 95.55 136.03ZM96.18 134.02C89.66 134.09 83.01 132.25 77.12 131.09C73.52 130.39 69.67 129.77 66.02 130.28C71.72 124.88 80.16 121.52 89.63 121.52C97.22 121.52 105.23 122.8 111.03 122.8C116.83 122.8 123.13 120.77 125.89 118.41C125.93 118.37 125.99 118.44 125.96 118.48C123.15 121.88 121.26 123.93 117.6 126.77C113.14 130.24 105.27 133.93 96.19 134.03L96.18 134.02ZM132.27 105.57C129.72 113.69 124.98 118.24 117.42 119.98C119.29 118.48 120.79 115.66 121.56 112.62C121.98 112.38 122.4 112.14 122.83 111.9C126.08 110.07 129.44 108.18 132.27 105.57ZM141.43 72.99C141.43 82.4 139.62 95.18 131.76 103.26C125.31 109.89 114.94 111.82 109.36 120.03C110.58 104.39 118.48 100.56 126.49 92.7C134.15 85.19 140.14 76.63 140.69 65.95C140.69 65.88 140.79 65.88 140.8 65.95C141.14 68.33 141.44 71.22 141.44 72.99H141.43ZM33.98 128.2C21.4 118.38 13.68 105.46 10.33 91.95C28.8 97.32 21.67 115.09 34.04 128.13C34.08 128.17 34.02 128.24 33.97 128.2H33.98ZM82.16 141.81C82.21 141.81 82.22 141.89 82.16 141.89C79.78 142.16 77.36 142.28 74.92 142.28C71.76 142.28 68.86 142.18 66.24 141.72C59.68 140.58 51.67 138.03 43.05 124.46C38.3 116.98 32.4 108.39 26.34 103.43C32.07 103.97 37.71 105.2 43 108.51C48.83 112.16 51.91 116.15 55.3 121.46C57.79 125.35 60.57 129.07 63.77 132.4C67.23 136 71.33 139.24 76.12 140.84C78.07 141.48 80.11 141.83 82.16 141.82M123.81 30.54C113.58 32.14 98.54 33.04 78.91 26.97C72.55 25 66.54 22.11 56.27 22.11C41.82 22.11 28.37 28.61 20.78 37.19C20.69 37.29 20.54 37.17 20.62 37.06C33.22 19.65 52.99 9.11 74.88 9.11C94.23 9.11 111.65 17.36 123.81 30.54Z" fill="#228B22"/>
</g>
<defs>
<clipPath id="clip0_0_1">
<rect width="150" height="150" fill="white"/>
</clipPath>
</defs>
</svg>
